:FULLY-SPECIFIED
:FORCE-ALL-JOINTS-BE-3DOF
:DEGREES
102
root 7.3784 16.6688 -26.729 4.03028 10.7299 -4.18619
lfemur -27.428 -4.67574 -10.1302
ltibia 39.5047 0 0
lfoot -18.2818 -3.00386 0
ltoes 16.5899 0 0
rfemur -31.4139 -9.55735 8.01865
rtibia 72.4537 0 0
rfoot 10.6736 15.7594 0
rtoes -8.38134 0 0
lowerback 0.759904 2.05927 1.05131
upperback -1.2687 2.77521 1.88167
thorax -1.74678 1.38672 1.30488
lowerneck -10.3468 -4.89508 2.39196
upperneck -1.00546 -6.78743 0.940026
head 1.37164 -3.3606 -0.391181
lclavicle 2.9121e-14 4.65724e-15 0
lhumerus -46.7386 -8.18939 93.2035
lradius 48.2432 0 0
lwrist 15.1797 0 0
lhand 6.73389 7.79193 0
lfingers 7.12502 0 0
lthumb 32.0214 34.9847 0
rclavicle 2.9121e-14 4.65724e-15 0
rhumerus -42.7279 0.27999 -72.8483
rradius 50.7285 0 0
rwrist -0.409461 0 0
rhand -18.4952 -13.8494 0
rfingers 7.12502 0 0
rthumb 7.79162 -43.6631 0
103
root 7.41645 16.6844 -26.7086 3.42086 11.1182 -3.89814
lfemur -26.4788 -4.12312 -10.7862
ltibia 38.9784 0 0
lfoot -18.0434 -4.18687 0
ltoes 18.6577 0 0
rfemur -33.8644 -8.35596 6.29214
rtibia 76.644 0 0
rfoot 16.3455 17.3433 0
rtoes -1.59226 0 0
lowerback 1.35822 1.82748 0.709228
upperback -1.02595 2.46716 1.92402
thorax -1.84466 1.23676 1.53054
lowerneck -10.4178 -4.88021 2.33519
upperneck -0.875935 -6.76526 0.910678
head 1.42742 -3.34832 -0.395195
lclavicle 1.921e-14 3.04567e-15 0
lhumerus -46.7246 -8.81864 93.4068
lradius 48.4897 0 0
lwrist 15.1761 0 0
lhand 7.13284 8.09587 0
lfingers 7.12502 0 0
lthumb 32.4011 35.2116 0
rclavicle 1.921e-14 3.04567e-15 0
rhumerus -42.7384 0.519905 -71.9322
rradius 50.669 0 0
rwrist 0.660571 0 0
rhand -19.4048 -14.3495 0
rfingers 7.12502 0 0
rthumb 6.91367 -44.194 0
104
root 7.45451 16.7 -26.6883 2.81143 11.5064 -3.61008
lfemur -25.5296 -3.5705 -11.4423
ltibia 38.452 0 0
lfoot -17.8051 -5.36989 0
ltoes 20.7256 0 0
rfemur -36.3148 -7.15458 4.56562
rtibia 80.8344 0 0
rfoot 22.0173 18.9272 0
rtoes 5.19683 0 0
lowerback 1.95653 1.5957 0.367145
upperback -0.783205 2.1591 1.96637
thorax -1.94255 1.08681 1.75621
lowerneck -10.4888 -4.86534 2.27841
upperneck -0.746414 -6.74309 0.88133
head 1.4832 -3.33604 -0.399208
lclavicle 9.29891e-15 1.43409e-15 0
lhumerus -46.7106 -9.44789 93.6101
lradius 48.7361 0 0
lwrist 15.1725 0 0
lhand 7.53178 8.39981 0
lfingers 7.12502 0 0
lthumb 32.7809 35.4385 0
rclavicle 9.29891e-15 1.43409e-15 0
rhumerus -42.7489 0.75982 -71.0162
rradius 50.6095 0 0
rwrist 1.7306 0 0
rhand -20.3144 -14.8496 0
rfingers 7.12502 0 0
rthumb 6.03571 -44.7248 0
105
root 7.49256 16.7157 -26.668 2.20201 11.8947 -3.32203
lfemur -24.5805 -3.01789 -12.0983
ltibia 37.9256 0 0
lfoot -17.5668 -6.5529 0
ltoes 22.7934 0 0
rfemur -38.7652 -5.95319 2.83911
rtibia 85.0247 0 0
rfoot 27.6892 20.5112 0
rtoes 11.9859 0 0
lowerback 2.55484 1.36391 0.025062
upperback -0.54046 1.85104 2.00873
thorax -2.04044 0.936856 1.98187
lowerneck -10.5597 -4.85047 2.22163
upperneck -0.616893 -6.72091 0.851982
head 1.53899 -3.32377 -0.403222
lclavicle -6.12143e-16 -1.77484e-16 0
lhumerus -46.6966 -10.0771 93.8135
lradius 48.9825 0 0
lwrist 15.1688 0 0
lhand 7.93073 8.70374 0
lfingers 7.12502 0 0
lthumb 33.1606 35.6654 0
rclavicle -6.12143e-16 -1.77484e-16 0
rhumerus -42.7593 0.999735 -70.1001
rradius 50.5499 0 0
rwrist 2.80064 0 0
rhand -21.224 -15.3496 0
rfingers 7.12502 0 0
rthumb 5.15775 -45.2556 0
106
root 7.53062 16.7313 -26.6477 1.59258 12.283 -3.03397
lfemur -23.6313 -2.46527 -12.7543
ltibia 37.3992 0 0
lfoot -17.3285 -7.73592 0
ltoes 24.8613 0 0
rfemur -41.2156 -4.75181 1.11259
rtibia 89.2151 0 0
rfoot 33.361 22.0951 0
rtoes 18.775 0 0
lowerback 3.15315 1.13213 -0.317021
upperback -0.297715 1.54298 2.05108
thorax -2.13833 0.786902 2.20754
lowerneck -10.6307 -4.8356 2.16485
upperneck -0.487372 -6.69874 0.822634
head 1.59477 -3.31149 -0.407235
lclavicle -1.05232e-14 -1.78906e-15 0
lhumerus -46.6826 -10.7064 94.0168
lradius 49.2289 0 0
lwrist 15.1652 0 0
lhand 8.32967 9.00768 0
lfingers 7.12502 0 0
lthumb 33.5404 35.8923 0
rclavicle -1.05232e-14 -1.78906e-15 0
rhumerus -42.7698 1.23965 -69.1841
rradius 50.4904 0 0
rwrist 3.87067 0 0
rhand -22.1336 -15.8497 0
rfingers 7.12502 0 0
rthumb 4.27979 -45.7864 0
107
root 7.55178 16.7492 -26.6375 0.764556 12.8057 -3.07653
lfemur -22.5782 -2.10677 -12.9513
ltibia 36.9236 0 0
lfoot -16.8394 -8.40876 0
ltoes 26.2094 0 0
rfemur -43.2946 -4.12825 -0.278313
rtibia 90.6741 0 0
rfoot 33.4868 20.6772 0
rtoes 19.5961 0 0
lowerback 3.91524 0.81183 -0.295041
upperback 0.0251829 1.12256 2.11648
thorax -2.21245 0.57617 2.29734
lowerneck -10.7221 -4.78511 2.0835
upperneck -0.352245 -6.62391 0.760905
head 1.65717 -3.27458 -0.415282
lclavicle -6.53507e-15 -1.98784e-15 0
lhumerus -46.1571 -11.1832 93.9456
lradius 48.9549 0 0
lwrist 14.8143 0 0
lhand 8.22373 8.66591 0
lfingers 7.12502 0 0
lthumb 33.4397 35.572 0
rclavicle -6.53507e-15 -1.98784e-15 0
rhumerus -42.85 1.52636 -68.4935
rradius 50.7693 0 0
rwrist 5.78373 0 0
rhand -22.2869 -16.5109 0
rfingers 7.12502 0 0
rthumb 4.13171 -46.4503 0
108
root 7.57293 16.7672 -26.6274 -0.0634686 13.3284 -3.11908
lfemur -21.525 -1.74828 -13.1484
ltibia 36.4479 0 0
lfoot -16.3504 -9.0816 0
ltoes 27.5575 0 0
rfemur -45.3736 -3.50468 -1.66922
rtibia 92.1331 0 0
rfoot 33.6125 19.2594 0
rtoes 20.4172 0 0
lowerback 4.67733 0.49153 -0.273062
upperback 0.348081 0.702143 2.18189
thorax -2.28656 0.365439 2.38713
lowerneck -10.8134 -4.73463 2.00215
upperneck -0.217119 -6.54909 0.699176
head 1.71957 -3.23767 -0.423329
lclavicle -2.54694e-15 -2.18663e-15 0
lhumerus -45.6317 -11.6599 93.8744
lradius 48.6809 0 0
lwrist 14.4633 0 0
lhand 8.11778 8.32415 0
lfingers 7.12502 0 0
lthumb 33.3389 35.2517 0
rclavicle -2.54694e-15 -2.18663e-15 0
rhumerus -42.9301 1.81308 -67.8028
rradius 51.0481 0 0
rwrist 7.69679 0 0
rhand -22.4403 -17.1722 0
rfingers 7.12502 0 0
rthumb 3.98362 -47.1141 0
